<svg width="64" height="64" viewBox="0 0 64 64" fill="none" xmlns="http://www.w3.org/2000/svg">
<g clip-path="url(#clip0_2_4)">
<circle cx="32" cy="32" r="28.5652" fill="white"/>
<path d="M31.9916 58.1539C29.2076 58.1539 26.6156 57.4579 24.2156 56.0659C21.8636 54.6739 19.9916 52.8019 18.5996 50.4499C17.2076 48.0499 16.5116 45.4579 16.5116 42.6739C16.5116 39.5059 17.3996 36.6259 19.1756 34.0339C20.9516 31.4419 23.2796 29.5699 26.1596 28.4179C24.2876 27.3619 22.7756 25.8979 21.6236 24.0259C20.4716 22.1059 19.8956 20.0419 19.8956 17.8339C19.8956 15.6259 20.4236 13.6099 21.4796 11.7859C22.5836 9.91387 24.0716 8.44987 25.9436 7.39387C27.8156 6.28987 29.8316 5.73787 31.9916 5.73787C34.1996 5.73787 36.2156 6.28987 38.0396 7.39387C39.9116 8.44987 41.3756 9.91387 42.4316 11.7859C43.5356 13.6099 44.0876 15.6259 44.0876 17.8339C44.0876 20.0899 43.5116 22.1539 42.3596 24.0259C41.2556 25.8979 39.7436 27.3619 37.8236 28.4179C40.6556 29.5699 42.9596 31.4419 44.7356 34.0339C46.5596 36.6259 47.4716 39.5059 47.4716 42.6739C47.4716 45.4579 46.7756 48.0499 45.3836 50.4499C43.9916 52.8019 42.0956 54.6739 39.6956 56.0659C37.3436 57.4579 34.7756 58.1539 31.9916 58.1539ZM22.5596 17.8339C22.5596 19.5139 22.9676 21.0979 23.7836 22.5859C24.6476 24.0259 25.7996 25.1779 27.2396 26.0419C28.7276 26.8579 30.3116 27.2659 31.9916 27.2659C33.6716 27.2659 35.2316 26.8579 36.6716 26.0419C38.1596 25.1779 39.3116 24.0259 40.1276 22.5859C40.9916 21.0979 41.4236 19.5139 41.4236 17.8339C41.4236 16.1539 40.9916 14.5939 40.1276 13.1539C39.3116 11.6659 38.1596 10.5139 36.6716 9.69787C35.2316 8.83387 33.6716 8.40187 31.9916 8.40187C30.3116 8.40187 28.7276 8.83387 27.2396 9.69787C25.7996 10.5139 24.6476 11.6659 23.7836 13.1539C22.9676 14.5939 22.5596 16.1539 22.5596 17.8339ZM31.9916 55.4899C34.2956 55.4899 36.4316 54.9139 38.3996 53.7619C40.3676 52.6099 41.9276 51.0499 43.0796 49.0819C44.2316 47.1139 44.8076 44.9779 44.8076 42.6739C44.8076 40.3699 44.2316 38.2339 43.0796 36.2659C41.9276 34.2979 40.3676 32.7379 38.3996 31.5859C36.4316 30.4339 34.2956 29.8579 31.9916 29.8579C29.6876 29.8579 27.5516 30.4339 25.5836 31.5859C23.6156 32.7379 22.0556 34.2979 20.9036 36.2659C19.7516 38.2339 19.1756 40.3699 19.1756 42.6739C19.1756 44.9779 19.7516 47.1139 20.9036 49.0819C22.0556 51.0499 23.6156 52.6099 25.5836 53.7619C27.5516 54.9139 29.6876 55.4899 31.9916 55.4899Z" fill="black"/>
<circle cx="32" cy="42.7853" r="9.1" stroke="black" stroke-width="1.8"/>
<circle cx="32" cy="17.824" r="6.2" stroke="black" stroke-width="1.6"/>
</g>
<defs>
<clipPath id="clip0_2_4">
<rect width="64" height="64" fill="white"/>
</clipPath>
</defs>
</svg>
