<svg width="114" height="93" viewBox="0 0 114 93" fill="none" xmlns="http://www.w3.org/2000/svg">
<g clip-path="url(#clip0_1_2)">
<rect width="114" height="93" fill="white"/>
<g clip-path="url(#clip1_1_2)">
<path fill-rule="evenodd" clip-rule="evenodd" d="M16.6573 2.43738C17.3101 1.90378 18.1253 1.85527 18.8117 2.30918C23.978 5.72561 26.4884 11.6919 27.7005 17.3026C28.8931 22.823 28.8929 28.2824 28.8929 31.2169V31.2857C28.8929 32.0624 28.6595 32.8074 28.2443 33.3565C27.8291 33.9056 27.2658 34.2143 26.6786 34.2143H20.0357V40.0714C20.0357 41.6889 19.0443 43 17.8214 43C16.5985 43 15.6071 41.6889 15.6071 40.0714V4.92857C15.6071 3.9136 16.0045 2.97099 16.6573 2.43738ZM1.21429 2.73214C2.13147 2.73214 2.875 3.71552 2.875 4.92857V12.25C2.875 13.6092 3.28325 14.9128 4.00996 15.8739C4.32658 16.2927 4.69231 16.6315 5.08929 16.8805V4.92857C5.08929 3.71552 5.83282 2.73214 6.75 2.73214C7.66718 2.73214 8.41072 3.71552 8.41072 4.92857V16.8805C8.81095 16.6294 9.17613 16.2891 9.49005 15.8739C9.84987 15.398 10.1353 14.8331 10.33 14.2113C10.5248 13.5895 10.625 12.923 10.625 12.25V4.92857C10.625 3.71552 11.3685 2.73214 12.2857 2.73214C13.2029 2.73214 13.9464 3.71552 13.9464 4.92857V12.25C13.9464 13.4999 13.7603 14.7376 13.3986 15.8923C13.037 17.0471 12.5069 18.0963 11.8387 18.9802C11.1704 19.864 10.3771 20.565 9.50395 21.0434C9.3265 21.1406 9.14646 21.2282 8.96429 21.3061V40.0714C8.96429 41.6889 7.97291 43 6.75 43C5.5271 43 4.53572 41.6889 4.53572 40.0714V21.3061C3.46179 20.8468 2.47433 20.0554 1.66135 18.9802C0.311767 17.1952 -0.446426 14.7743 -0.446426 12.25V4.92857C-0.446426 3.71552 0.2971 2.73214 1.21429 2.73214Z" fill="black"/>
</g>
<path d="M86.36 92.92C81.4107 92.92 76.8027 91.6827 72.536 89.208C68.3547 86.7333 65.0267 83.4053 62.552 79.224C60.0773 74.9573 58.84 70.3493 58.84 65.4C58.84 59.768 60.4187 54.648 63.576 50.04C66.7333 45.432 70.872 42.104 75.992 40.056C72.664 38.1787 69.976 35.576 67.928 32.248C65.88 28.8347 64.856 25.1653 64.856 21.24C64.856 17.3147 65.7947 13.7307 67.672 10.488C69.6347 7.16 72.28 4.55733 75.608 2.67999C78.936 0.717326 82.52 -0.264008 86.36 -0.264008C90.2853 -0.264008 93.8693 0.717326 97.112 2.67999C100.44 4.55733 103.043 7.16 104.92 10.488C106.883 13.7307 107.864 17.3147 107.864 21.24C107.864 25.2507 106.84 28.92 104.792 32.248C102.829 35.576 100.141 38.1787 96.728 40.056C101.763 42.104 105.859 45.432 109.016 50.04C112.259 54.648 113.88 59.768 113.88 65.4C113.88 70.3493 112.643 74.9573 110.168 79.224C107.693 83.4053 104.323 86.7333 100.056 89.208C95.8747 91.6827 91.3093 92.92 86.36 92.92ZM69.592 21.24C69.592 24.2267 70.3173 27.0427 71.768 29.688C73.304 32.248 75.352 34.296 77.912 35.832C80.5573 37.2827 83.3733 38.008 86.36 38.008C89.3467 38.008 92.12 37.2827 94.68 35.832C97.3253 34.296 99.3733 32.248 100.824 29.688C102.36 27.0427 103.128 24.2267 103.128 21.24C103.128 18.2533 102.36 15.48 100.824 12.92C99.3733 10.2747 97.3253 8.22666 94.68 6.77599C92.12 5.23999 89.3467 4.47199 86.36 4.47199C83.3733 4.47199 80.5573 5.23999 77.912 6.77599C75.352 8.22666 73.304 10.2747 71.768 12.92C70.3173 15.48 69.592 18.2533 69.592 21.24ZM86.36 88.184C90.456 88.184 94.2533 87.16 97.752 85.112C101.251 83.064 104.024 80.2907 106.072 76.792C108.12 73.2933 109.144 69.496 109.144 65.4C109.144 61.304 108.12 57.5067 106.072 54.008C104.024 50.5093 101.251 47.736 97.752 45.688C94.2533 43.64 90.456 42.616 86.36 42.616C82.264 42.616 78.4667 43.64 74.968 45.688C71.4693 47.736 68.696 50.5093 66.648 54.008C64.6 57.5067 63.576 61.304 63.576 65.4C63.576 69.496 64.6 73.2933 66.648 76.792C68.696 80.2907 71.4693 83.064 74.968 85.112C78.4667 87.16 82.264 88.184 86.36 88.184Z" fill="black"/>
<circle cx="86.5" cy="65.5" r="15" stroke="black" stroke-width="3"/>
<circle cx="86.5" cy="21.5" r="11" stroke="black" stroke-width="3"/>
<path d="M35.3081 34.944V1.008H39.4521V34.944C39.4521 35.3547 39.4895 35.7093 39.5641 36.008C39.6388 36.3067 39.7135 36.568 39.7881 36.792C39.9001 36.9787 40.0495 37.1467 40.2361 37.296C40.4228 37.4453 40.5908 37.5573 40.7401 37.632C40.9268 37.7067 41.1508 37.7627 41.4121 37.8C41.6735 37.8373 41.8788 37.856 42.0281 37.856C42.2148 37.856 42.4575 37.856 42.7561 37.856C42.7561 37.856 42.7748 37.856 42.8121 37.856C42.8495 37.856 42.8868 37.856 42.9241 37.856H60.0601V42H42.9241C41.8415 42 40.9081 41.9253 40.1241 41.776C39.3401 41.6267 38.5561 41.328 37.7721 40.88C36.9881 40.432 36.3721 39.704 35.9241 38.696C35.5135 37.688 35.3081 36.4373 35.3081 34.944Z" fill="black"/>
<path d="M-0.0309377 90V49.008H16.8251C23.3584 49.008 26.6251 52.9653 26.6251 60.88C26.6251 63.12 26.4011 65.0427 25.9531 66.648C25.5424 68.2533 25.0197 69.4853 24.3851 70.344C23.7877 71.1653 23.0037 71.8187 22.0331 72.304C21.0624 72.752 20.2037 73.032 19.4571 73.144C18.7104 73.256 17.8331 73.312 16.8251 73.312C15.7424 73.312 13.3904 73.144 9.76906 72.808C6.14773 72.472 4.2624 72.2667 4.11306 72.192V90H-0.0309377ZM4.11306 69.168H16.8251C18.6171 69.168 19.9984 68.6267 20.9691 67.544C21.9397 66.4613 22.4251 64.24 22.4251 60.88C22.3877 59.1627 22.1824 57.744 21.8091 56.624C21.4357 55.504 20.9131 54.72 20.2411 54.272C19.6064 53.824 19.0464 53.544 18.5611 53.432C18.0757 53.2827 17.4971 53.208 16.8251 53.208H4.11306V69.168ZM35.3081 82.944V49.008H39.4521V82.944C39.4521 83.3547 39.4895 83.7093 39.5641 84.008C39.6388 84.3067 39.7135 84.568 39.7881 84.792C39.9001 84.9787 40.0495 85.1467 40.2361 85.296C40.4228 85.4453 40.5908 85.5573 40.7401 85.632C40.9268 85.7067 41.1508 85.7627 41.4121 85.8C41.6735 85.8373 41.8788 85.856 42.0281 85.856C42.2148 85.856 42.4575 85.856 42.7561 85.856C42.7561 85.856 42.7748 85.856 42.8121 85.856C42.8495 85.856 42.8868 85.856 42.9241 85.856H60.0601V90H42.9241C41.8415 90 40.9081 89.9253 40.1241 89.776C39.3401 89.6267 38.5561 89.328 37.7721 88.88C36.9881 88.432 36.3721 87.704 35.9241 86.696C35.5135 85.688 35.3081 84.4373 35.3081 82.944Z" fill="black"/>
</g>
<defs>
<clipPath id="clip0_1_2">
<rect width="114" height="93" fill="white"/>
</clipPath>
<clipPath id="clip1_1_2">
<rect width="31" height="41" fill="white" transform="translate(-1 2)"/>
</clipPath>
</defs>
</svg>
